<svg xmlns="http://www.w3.org/2000/svg" viewBox="0 0 303.01 299.35"><defs><style>.cls-1{fill:none;stroke:#b49159;stroke-miterlimit:10;stroke-width:2.5px;}.cls-2{fill:#f6f2ec;}.cls-3{fill:#b49159;}</style></defs><g id="CARRE"><rect class="cls-1" x="134.64" y="142.43" width="209.18" height="209.18" transform="translate(-194.15 144.17) rotate(-45)"/></g><g id="V"><path class="cls-2" d="M177.79,242.9" transform="translate(-89.55 -97.34)"/><path class="cls-2" d="M151.91,277.5c-4.45,0-3.68-18.43-17.44-29.42a32.93,32.93,0,0,0-9.26-5.18l26.7,82.23" transform="translate(-89.55 -97.34)"/><path class="cls-2" d="M133.45,247.3" transform="translate(-89.55 -97.34)"/><path class="cls-2" d="M151.91,277.5c4.44,0,3.67-18.43,17.43-29.42a33,33,0,0,1,9.27-5.18l-26.7,82.23" transform="translate(-89.55 -97.34)"/><path class="cls-2" d="M170.36,247.3" transform="translate(-89.55 -97.34)"/><path class="cls-2" d="M390.84,157" transform="translate(-89.55 -97.34)"/><path class="cls-2" d="M336.35,229.87c-9.36-.09-7.74-38.8-36.71-62a69.51,69.51,0,0,0-19.5-10.9l56.21,173.13" transform="translate(-89.55 -97.34)"/><path class="cls-2" d="M297.49,166.29" transform="translate(-89.55 -97.34)"/><path class="cls-2" d="M336.35,229.87c9.36-.09,7.74-38.8,36.71-62a69.51,69.51,0,0,1,19.5-10.9L336.35,330.15" transform="translate(-89.55 -97.34)"/><path class="cls-2" d="M375.21,166.29" transform="translate(-89.55 -97.34)"/><circle class="cls-2" cx="62.4" cy="141.79" r="9.54"/><circle class="cls-2" cx="246.79" cy="46.26" r="16.59"/></g><g id="OBJECTS"><g id="Layer_1"><path class="cls-3" d="M238.35,289.85c1.72-2.19,5.74-4,7.36-7.2a12.38,12.38,0,0,1-1.87,4.66c3.58-1.72,5.79-3.76,5.78-6.33,0-2.1-1.67-3.86-4.62-5.16a14.25,14.25,0,0,0-13.31,0c-2.95,1.3-4.61,3.06-4.62,5.16,0,2.57,2.2,4.61,5.78,6.33a12.38,12.38,0,0,1-1.87-4.66c1.62,3.24,5.64,5,7.37,7.2Z" transform="translate(-89.55 -97.34)"/></g><g id="Layer_2"><path class="cls-3" d="M206.85,205.09l-11.39-30.34,10.64,5.41c-2,6.4.72,12.73,6.51,15.3,5.95,2.63,17.38.54,19.71-8.35,1.46-5.58-.45-8.36-2.81-11l8.84-11.48,8.83,11.48c-2.36,2.6-4.27,5.39-2.81,11,2.33,8.89,13.76,11,19.71,8.35,5.79-2.57,8.51-8.9,6.51-15.3l10.64-5.41-11.39,30.34c-6.83-2.77-13.83,0-19.76,4.19a123.24,123.24,0,0,1-23.47,0c-5.93-4.21-12.93-7-19.76-4.19Zm31.5-6.61a2.95,2.95,0,1,0,2.94,3A3,3,0,0,0,238.35,198.48Z" transform="translate(-89.55 -97.34)"/></g><g id="Layer_3"><path class="cls-3" d="M261.62,193.75c-2.12-1.11-2.5-4-2.31-5.33.22-1.5,1.29-2.32,2.74-2.94L258.86,178l-6,5.65c1.17,1.06,2.05,2.39,1.72,3.87-.48,2.12-2.31,3.56-5.07,3.61a13.72,13.72,0,0,0,12.06,2.6Zm-46.55,0c2.12-1.11,2.5-4,2.31-5.33-.22-1.5-1.29-2.32-2.74-2.94l3.19-7.46,5.95,5.65c-1.17,1.06-2.05,2.39-1.72,3.87.48,2.12,2.31,3.56,5.07,3.61a13.72,13.72,0,0,1-12.06,2.6Z" transform="translate(-89.55 -97.34)"/></g><g id="Layer_4"><path class="cls-3" d="M292.85,249.59c3.17-19-8.4-35.81-24.45-38.42,5.26-1.06,13.11,1.53,18.35,6.58a31.19,31.19,0,0,0-13.05-13.58l-1,2.67c.36.23.73.49,1.09.76-16.15-3.83-23.89,6.4-32.45,9.7,1.36-1.44,2.9-3,4.58-4.45a64,64,0,0,1-15.15,0c1.67,1.48,3.22,3,4.58,4.45-8.56-3.3-16.3-13.53-32.45-9.7.37-.27.73-.53,1.09-.76l-1-2.67a31.19,31.19,0,0,0-13.05,13.58c5.24-5.05,13.09-7.64,18.35-6.58-16,2.61-27.62,19.4-24.45,38.42,1.56-12.19,9.5-22.68,17.2-24.38-6.87,4.2-23.5,27.5-9,56.74-2.92-17.87,3.29-34.39,10.27-41-14.51,30.43-3.11,55.81,5.83,64.26-4.43-11.26,1.11-20-3.44-31.83,9.54,10.41-1.07,33.83,23.57,47.24-3.9-6-8.49-12.76-7.29-26.78,1.74,15.5,11.46,21.49,17.35,34.15,5.88-12.66,15.6-18.65,17.34-34.15,1.2,14-3.39,20.8-7.29,26.78,24.64-13.41,14-36.83,23.57-47.24-4.55,11.85,1,20.57-3.44,31.83,8.94-8.45,20.34-33.83,5.83-64.26,7,6.57,13.19,23.09,10.27,41,14.52-29.24-2.11-52.54-9-56.74C283.35,226.91,291.3,237.4,292.85,249.59ZM271.2,220.37c4.12,3.09-2,8.58-.31,14.62a38.94,38.94,0,0,0-3.06-3.9,18.51,18.51,0,0,0-5.65-4.64,16.8,16.8,0,0,1,5,.59c-2.25-2.61-6.61-4.26-10.63-5.2.52,0,10.32-4.7,14.63-1.47Zm-22.71,31.56c0-6.51-2.64-12-4.7-13.61,4.59,1.38,8.75-2,10.36-2.58,2.33-.78,4.42-.5,6.81-.12a8.47,8.47,0,0,0-3.25,2.15c-2.18,4.38-5.77,3.89-9,3.7C249,243.36,249.26,245.79,248.49,251.93Zm22.2-36.31c-12-1.08-18.82,3.39-22.15,6.15-2.47,2.06-4.87,1.31-8.79,2.8C243.31,219.89,258,211.92,270.69,215.62Zm-33.75,8.95c-3.92-1.49-6.32-.74-8.79-2.8C224.82,219,218,214.54,206,215.62,218.72,211.92,233.38,219.89,236.94,224.57Zm-18,13.2a8.47,8.47,0,0,0-3.25-2.15c2.39-.38,4.48-.66,6.81.12,1.61.57,5.77,4,10.36,2.58-2.06,1.63-4.7,7.1-4.7,13.61-.77-6.14-.54-8.57-.2-10.46C224.75,241.66,221.16,242.15,219,237.77Zm-13.49-17.4h0c4.31-3.23,14.11,1.47,14.63,1.47-4,.94-8.38,2.59-10.63,5.2a16.83,16.83,0,0,1,5-.59,18.42,18.42,0,0,0-5.66,4.64,40.45,40.45,0,0,0-3.06,3.9C207.48,229,201.37,223.46,205.49,220.37Zm67.39,48.14c.82-5.63.3-11.32-1.05-13.72.58,9.41-8.64,17.42-11,37.93a46.32,46.32,0,0,1,1.56-19.79c-6.11,8.94-7.34,20.89-15.38,29.18,1.36-2,4.3-9.27,3.77-13.55-1.16,5-12.07,9.71-12.47,15.91-.4-6.2-11.32-10.87-12.48-15.91-.53,4.28,2.41,11.54,3.77,13.55-8-8.29-9.27-20.24-15.38-29.18a46.32,46.32,0,0,1,1.56,19.79c-2.32-20.51-11.53-28.52-10.95-37.93-1.36,2.4-1.88,8.09-1.06,13.72-6.48-15.13,3.61-30.11,8.58-35.68-3.67,8.12-6.36,19.38,1.86,29.55,2-3.37,5.59-5.72,8.45-7.3-2.78,3.25-5.37,8.1-4.93,12.62a29.69,29.69,0,0,0,8.43-.17,31.68,31.68,0,0,1-7.81,2.77,9.57,9.57,0,0,0,2,3.1,25.6,25.6,0,0,0,6.19-2.64,23.41,23.41,0,0,1-4.56,4.05,17.12,17.12,0,0,0,3.23,1.81c4.57-4.43,10.89-4,11.19-8.05a7.76,7.76,0,0,0-.88-4.6c-1.9-3.19-10.82-3.07-7.51-9.4a2.52,2.52,0,0,0,2.6,3,40.25,40.25,0,0,1,7.66.89,39.5,39.5,0,0,1,7.65-.89,2.52,2.52,0,0,0,2.6-3c3.31,6.33-5.61,6.21-7.51,9.4a7.67,7.67,0,0,0-.87,4.6c.29,4.05,6.61,3.62,11.18,8.05a16.88,16.88,0,0,0,3.23-1.81,23.09,23.09,0,0,1-4.55-4.05,25.36,25.36,0,0,0,6.18,2.64,9.54,9.54,0,0,0,2-3.1,31.61,31.61,0,0,1-7.8-2.77,29.69,29.69,0,0,0,8.43.17c.43-4.52-2.15-9.37-4.92-12.62,2.85,1.58,6.47,3.93,8.44,7.3,8.22-10.17,5.53-21.43,1.86-29.55C269.27,238.4,279.36,253.38,272.88,268.51Z" transform="translate(-89.55 -97.34)"/></g></g></svg>